<svg width="33" height="33" viewBox="0 0 33 33" fill="none" xmlns="http://www.w3.org/2000/svg">
<path d="M17.2402 5.90492C17.6846 5.56978 18.1252 5.31239 18.5196 5.13107C18.6388 8.05586 20.0688 10.2551 21.4452 12.1977C21.5711 12.3754 21.6961 12.5505 21.8196 12.7236C23.3093 14.8116 24.5851 16.5997 24.7243 18.9667C24.8846 21.6919 24.2049 23.9957 22.8873 25.5992C21.5856 27.1832 19.5779 28.1875 16.8438 28.1875C14.0095 28.1875 11.8794 27.4604 10.3929 26.2409C8.91335 25.0271 7.96774 23.2411 7.6519 20.9169C7.34115 18.6302 7.89455 17.0049 8.49234 15.9626C8.60992 15.7576 8.72996 15.5741 8.84667 15.4115L9.27979 16.2341C10.0375 17.6731 11.7953 18.2585 13.2644 17.5609C15.0597 16.7084 15.4428 14.5193 14.8727 12.9822C14.4738 11.9069 14.2616 10.5938 14.7231 9.27906C15.2405 7.8049 16.2229 6.67223 17.2402 5.90492ZM8.465 12.8193L8.46168 12.8218L8.45625 12.8259L8.44199 12.8368C8.431 12.8453 8.41708 12.8562 8.40045 12.8696C8.3672 12.8964 8.32307 12.933 8.26983 12.9795C8.16342 13.0726 8.02015 13.2058 7.85449 13.3802C7.5236 13.7285 7.10006 14.2447 6.70326 14.9365C5.90275 16.3321 5.23006 18.4121 5.60819 21.1945C5.98121 23.9397 7.13395 26.2351 9.08478 27.8355C11.0287 29.4302 13.6611 30.25 16.8438 30.25C20.1266 30.25 22.7459 29.0199 24.4808 26.9086C26.1998 24.8168 26.9668 21.9644 26.7832 18.8458C26.6074 15.854 24.9777 13.5842 23.5383 11.5792C23.3993 11.3856 23.2621 11.1945 23.1282 11.0054C21.5579 8.7893 20.3181 6.74653 20.6194 3.88937C20.65 3.59866 20.5558 3.30859 20.3603 3.09133C20.1646 2.87407 19.8861 2.75 19.5938 2.75C19.0685 2.75 18.4675 2.91255 17.8856 3.15699C17.2858 3.40894 16.6353 3.77783 15.9983 4.25829C14.7268 5.21727 13.4556 6.66274 12.777 8.59594C12.1001 10.5244 12.443 12.3625 12.9389 13.6994C13.2645 14.5773 12.9113 15.4454 12.3798 15.6977C11.9097 15.921 11.3472 15.7337 11.1048 15.2732L9.9947 13.165C9.85425 12.8982 9.60411 12.7063 9.31011 12.6397C9.01611 12.573 8.70671 12.6391 8.465 12.8193Z" fill="#06161D"/>
</svg>
