<svg width="65" height="65" viewBox="0 0 65 65" fill="none" xmlns="http://www.w3.org/2000/svg">
<path d="M35.7745 8.40165C34.4334 5.68414 30.5583 5.68416 29.2171 8.40165L22.8311 21.3413L8.55132 23.4163C5.55238 23.852 4.35492 27.5375 6.52497 29.6527L16.8579 39.7247L14.4186 53.947C13.9063 56.9338 17.0413 59.2115 19.7237 57.8012L32.4958 51.0865L45.2681 57.8012C47.9504 59.2115 51.0853 56.9338 50.5731 53.947L48.1337 39.7247L58.4668 29.6527C60.6368 27.5375 59.4394 23.852 56.4405 23.4163L42.1608 21.3413L35.7745 8.40165ZM26.3795 23.3307L32.4958 10.9377L38.6123 23.3307C39.1448 24.4099 40.1742 25.1578 41.3651 25.3309L55.0416 27.3181L45.1451 36.965C44.2836 37.8048 43.8903 39.0149 44.0937 40.2011L46.4299 53.8224L34.1972 47.3912C33.132 46.8311 31.8596 46.8311 30.7945 47.3912L18.5618 53.8224L20.898 40.2011C21.1015 39.0149 20.7082 37.8048 19.8465 36.965L9.95009 27.3181L23.6266 25.3309C24.8175 25.1578 25.847 24.4099 26.3795 23.3307ZM3.15369 10.2403C2.45288 11.1162 2.59491 12.3945 3.47092 13.0953L10.2417 18.512C11.1177 19.2128 12.396 19.0708 13.0968 18.1947C13.7976 17.3187 13.6556 16.0405 12.7796 15.3397L6.00873 9.92303C5.13272 9.22222 3.85447 9.36425 3.15369 10.2403ZM61.8468 49.3407C62.5478 48.4645 62.4056 47.1862 61.5297 46.4856L54.7589 41.0689C53.8827 40.368 52.6047 40.5102 51.9037 41.386C51.2028 42.2622 51.345 43.5402 52.2209 44.2412L58.9917 49.6578C59.8679 50.3585 61.1459 50.2166 61.8468 49.3407ZM3.47092 46.4856C2.59491 47.1862 2.45288 48.4645 3.15369 49.3407C3.85447 50.2166 5.13272 50.3585 6.00873 49.6578L12.7796 44.2412C13.6556 43.5402 13.7976 42.2622 13.0968 41.386C12.396 40.5102 11.1177 40.368 10.2417 41.0689L3.47092 46.4856ZM61.8468 10.2403C62.5478 11.1162 62.4056 12.3945 61.5297 13.0953L54.7589 18.512C53.8827 19.2128 52.6047 19.0708 51.9037 18.1947C51.2028 17.3187 51.345 16.0405 52.2209 15.3397L58.9917 9.92303C59.8679 9.22222 61.1459 9.36425 61.8468 10.2403Z" fill="#212121"/>
</svg>
