<svg width="43" height="42" viewBox="0 0 43 42" fill="none" xmlns="http://www.w3.org/2000/svg">
<path d="M18.8126 8.75C18.8126 9.87205 19.5332 10.8297 20.5473 11.2052C21.1729 11.3539 21.8265 11.354 22.4523 11.2054C23.4664 10.83 24.1876 9.87222 24.1876 8.75C24.1876 7.30025 22.9843 6.125 21.5001 6.125C20.0157 6.125 18.8126 7.30025 18.8126 8.75ZM16.172 9.44783C16.141 9.21952 16.125 8.9866 16.125 8.75C16.125 5.85051 18.5315 3.5 21.5001 3.5C24.4685 3.5 26.8751 5.85051 26.8751 8.75C26.8751 8.98664 26.8589 9.21961 26.828 9.44795L31.9817 7.31122C34.0297 6.46205 36.4032 7.38885 37.2875 9.3831C38.1749 11.3842 37.2266 13.7009 35.1716 14.553L28.6712 17.248V23.7531L32.0293 33.2792C32.7542 35.3353 31.6354 37.5762 29.5301 38.2841C27.4251 38.9921 25.1311 37.8992 24.4062 35.8432L21.5003 27.6001L18.5945 35.8426C17.8697 37.8989 15.5756 38.9917 13.4705 38.2837C11.3654 37.5758 10.2465 35.335 10.9713 33.2789L14.3378 23.7291V17.2517L7.82876 14.553C5.77357 13.7009 4.82535 11.3842 5.71273 9.3831C6.59706 7.38885 8.97052 6.46205 11.0186 7.31122L16.172 9.44783ZM19.7478 13.7147C19.452 13.6367 19.1603 13.5385 18.8749 13.4201L9.96856 9.72753C9.27965 9.44191 8.4763 9.75562 8.17885 10.4264C7.88444 11.0903 8.197 11.854 8.87885 12.1367L15.6608 14.9485C16.4881 15.2915 17.0253 16.0843 17.0253 16.9621V23.8025C17.0253 24.0448 16.9841 24.2854 16.9033 24.5145L13.5124 34.1334C13.2708 34.8189 13.6438 35.5658 14.3455 35.8017C15.0472 36.0377 15.8119 35.6734 16.0535 34.9881L19.831 24.2729C20.3783 22.7187 22.6243 22.7248 23.1695 24.2723L26.9473 34.9885C27.1888 35.6739 27.9535 36.0381 28.6553 35.8022C29.3569 35.5661 29.7299 34.8192 29.4882 34.1339L26.1057 24.5385C26.0249 24.3093 25.9837 24.0686 25.9837 23.8262V16.9585C25.9837 16.0806 26.5209 15.2878 27.3483 14.9449L34.1215 12.1367C34.8032 11.854 35.1158 11.0903 34.8215 10.4264C34.5239 9.75562 33.7207 9.44191 33.0316 9.72753L24.1254 13.4201C23.8395 13.5386 23.5474 13.6369 23.2511 13.7151C22.7023 13.8997 22.1132 14 21.5001 14C20.8864 14 20.297 13.8996 19.7478 13.7147Z" fill="#212121"/>
</svg>
