<svg width="60" height="58" viewBox="0 0 60 58" fill="none" xmlns="http://www.w3.org/2000/svg">
<path d="M26.2501 12.0833C26.2501 13.6327 27.2556 14.9552 28.6706 15.4738C29.5436 15.6792 30.4556 15.6793 31.3289 15.4741C32.7439 14.9556 33.7501 13.633 33.7501 12.0833C33.7501 10.0812 32.0711 8.45825 30.0001 8.45825C27.9289 8.45825 26.2501 10.0812 26.2501 12.0833ZM22.5657 13.0469C22.5224 12.7316 22.5 12.41 22.5 12.0833C22.5 8.0792 25.8579 4.83325 30.0001 4.83325C34.1421 4.83325 37.5001 8.0792 37.5001 12.0833C37.5001 12.41 37.4776 12.7318 37.4344 13.0471L44.6256 10.0964C47.4834 8.9237 50.7951 10.2036 52.0291 12.9575C53.2674 15.721 51.9441 18.9202 49.0766 20.0969L40.0064 23.8186V32.8018L44.6921 45.9569C45.7036 48.7963 44.1424 51.8908 41.2049 52.8684C38.2676 53.8462 35.0666 52.3369 34.0551 49.4976L30.0004 38.1144L25.9459 49.4969C24.9345 52.3365 21.7334 53.8457 18.7961 52.8679C15.8587 51.8903 14.2974 48.7958 15.3088 45.9565L20.0063 32.7687V23.8236L10.9239 20.0969C8.05617 18.9202 6.73307 15.721 7.97127 12.9575C9.20522 10.2036 12.517 8.9237 15.3749 10.0964L22.5657 13.0469ZM27.5551 18.9393C27.1424 18.8315 26.7354 18.6959 26.3371 18.5325L13.9096 13.4332C12.9484 13.0388 11.8274 13.472 11.4124 14.3983C11.0016 15.3151 11.4377 16.3697 12.3891 16.7601L21.8523 20.6431C23.0067 21.1167 23.7563 22.2115 23.7563 23.4238V32.87C23.7563 33.2047 23.6988 33.537 23.586 33.8533L18.8545 47.1365C18.5174 48.0831 19.0378 49.1146 20.0169 49.4403C20.9961 49.7663 22.0631 49.2632 22.4002 48.3168L27.6711 33.5196C28.4349 31.3733 31.5689 31.3818 32.3296 33.5188L37.6009 48.3173C37.9379 49.2639 39.0049 49.7668 39.9841 49.4411C40.9631 49.115 41.4836 48.0836 41.1464 47.1372L36.4266 33.8864C36.3139 33.5698 36.2564 33.2375 36.2564 32.9028V23.4187C36.2564 22.2065 37.0059 21.1117 38.1604 20.6381L47.6114 16.7601C48.5626 16.3697 48.9989 15.3151 48.5881 14.3983C48.1729 13.472 47.0521 13.0388 46.0906 13.4332L33.6634 18.5325C33.2644 18.6961 32.8569 18.8319 32.4434 18.9398C31.6776 19.1948 30.8556 19.3333 30.0001 19.3333C29.1439 19.3333 28.3214 19.1946 27.5551 18.9393Z" fill="#212121"/>
</svg>
