<svg width="65" height="65" viewBox="0 0 65 65" fill="none" xmlns="http://www.w3.org/2000/svg">
<path d="M33.9581 11.631C34.8334 10.9709 35.7014 10.4639 36.4782 10.1067C36.713 15.8677 39.5296 20.1996 42.2407 24.026C42.4888 24.3759 42.735 24.7209 42.9782 25.0618C45.9124 29.1745 48.4254 32.6964 48.6995 37.3588C49.0153 42.7265 47.6766 47.2643 45.0812 50.4227C42.5172 53.5427 38.5628 55.5209 33.1772 55.5209C27.5946 55.5209 23.3991 54.0887 20.4711 51.6867C17.5568 49.2958 15.6942 45.778 15.0721 41.2001C14.46 36.6958 15.55 33.4946 16.7275 31.4417C16.9591 31.0379 17.1955 30.6763 17.4254 30.3562L18.2785 31.9763C19.7709 34.8108 23.2333 35.9638 26.127 34.5898C29.6632 32.9107 30.4177 28.5987 29.2948 25.5711C28.5092 23.453 28.0913 20.8666 29.0002 18.277C30.0193 15.3734 31.9544 13.1424 33.9581 11.631ZM16.6736 25.2501L16.6671 25.255L16.6564 25.2631L16.6283 25.2847C16.6067 25.3014 16.5793 25.323 16.5465 25.3494C16.481 25.4021 16.3941 25.4742 16.2892 25.5658C16.0796 25.7491 15.7974 26.0115 15.4711 26.355C14.8194 27.0411 13.9851 28.0579 13.2036 29.4204C11.6268 32.1694 10.3018 36.2663 11.0466 41.7469C11.7813 47.1541 14.0519 51.6754 17.8944 54.8276C21.7233 57.9687 26.9083 59.5834 33.1772 59.5834C39.6434 59.5834 44.8028 57.1605 48.2199 53.0019C51.6058 48.8817 53.1165 43.2633 52.755 37.1205C52.4086 31.2277 49.1987 26.7569 46.3636 22.8076C46.0898 22.4262 45.8195 22.0498 45.5557 21.6773C42.4628 17.3123 40.0207 13.2887 40.6141 7.66095C40.6745 7.08836 40.4889 6.51701 40.1038 6.08906C39.7184 5.66112 39.1697 5.41675 38.5939 5.41675C37.5593 5.41675 36.3755 5.73693 35.2293 6.21839C34.048 6.71466 32.7667 7.44125 31.5119 8.38763C29.0075 10.2765 26.5036 13.1237 25.167 16.9315C23.8337 20.7299 24.5091 24.3504 25.4858 26.9837C26.1272 28.713 25.4315 30.4228 24.3846 30.9198C23.4586 31.3596 22.3507 30.9907 21.8732 30.0837L19.6867 25.9311C19.4101 25.4057 18.9174 25.0276 18.3383 24.8964C17.7592 24.7652 17.1497 24.8953 16.6736 25.2501Z" fill="#06161D"/>
</svg>
