<svg width="28" height="28" viewBox="0 0 28 28" fill="none" xmlns="http://www.w3.org/2000/svg">
<path d="M14.0002 15.1666H13.2502C13.2502 15.4174 13.3755 15.6515 13.5841 15.7906L14.0002 15.1666ZM14.7502 9.33325C14.7502 8.91904 14.4144 8.58325 14.0002 8.58325C13.5859 8.58325 13.2502 8.91904 13.2502 9.33325H14.7502ZM17.0841 18.124C17.4288 18.3537 17.8944 18.2606 18.1242 17.9159C18.354 17.5713 18.2608 17.1056 17.9162 16.8759L17.0841 18.124ZM19.9046 1.64608C19.5251 1.48012 19.0829 1.65324 18.917 2.03276C18.751 2.41227 18.9241 2.85446 19.3037 3.02042L19.9046 1.64608ZM25.0423 7.84032C25.2716 8.18525 25.7372 8.27895 26.0821 8.04961C26.427 7.82027 26.5207 7.35474 26.2914 7.00981L25.0423 7.84032ZM1.70895 7.00981C1.47961 7.35474 1.57331 7.82027 1.91824 8.04961C2.26317 8.27895 2.72871 8.18525 2.95805 7.84032L1.70895 7.00981ZM8.69667 3.02042C9.07618 2.85446 9.2493 2.41227 9.08334 2.03276C8.91739 1.65324 8.47519 1.48012 8.09568 1.64608L8.69667 3.02042ZM23.8995 26.1157C24.1475 26.4474 24.6175 26.5153 24.9492 26.2673C25.281 26.0192 25.3489 25.5492 25.1008 25.2175L23.8995 26.1157ZM22.4842 21.7175C22.2361 21.3858 21.7661 21.3179 21.4344 21.5659C21.1026 21.8139 21.0348 22.2839 21.2828 22.6157L22.4842 21.7175ZM2.89946 25.2175C2.65145 25.5493 2.71934 26.0193 3.0511 26.2673C3.38285 26.5153 3.85285 26.4474 4.10086 26.1157L2.89946 25.2175ZM6.71736 22.6157C6.96538 22.2839 6.89749 21.8139 6.56573 21.5659C6.23397 21.3179 5.76398 21.3858 5.51597 21.7175L6.71736 22.6157ZM14.7502 15.1666V9.33325H13.2502V15.1666H14.7502ZM13.5841 15.7906L17.0841 18.124L17.9162 16.8759L14.4162 14.5425L13.5841 15.7906ZM23.7502 15.1666C23.7502 20.5514 19.3849 24.9166 14.0002 24.9166V26.4166C20.2134 26.4166 25.2502 21.3798 25.2502 15.1666H23.7502ZM14.0002 24.9166C8.61539 24.9166 4.25016 20.5514 4.25016 15.1666H2.75016C2.75016 21.3798 7.78696 26.4166 14.0002 26.4166V24.9166ZM4.25016 15.1666C4.25016 9.78181 8.61539 5.41659 14.0002 5.41659V3.91659C7.78696 3.91659 2.75016 8.95338 2.75016 15.1666H4.25016ZM14.0002 5.41659C19.3849 5.41659 23.7502 9.78181 23.7502 15.1666H25.2502C25.2502 8.95338 20.2134 3.91659 14.0002 3.91659V5.41659ZM19.3037 3.02042C21.6479 4.04555 23.6393 5.73029 25.0423 7.84032L26.2914 7.00981C24.7307 4.6625 22.5153 2.78771 19.9046 1.64608L19.3037 3.02042ZM2.95805 7.84032C4.36098 5.73029 6.35239 4.04555 8.69667 3.02042L8.09568 1.64608C5.485 2.78771 3.26964 4.6625 1.70895 7.00981L2.95805 7.84032ZM25.1008 25.2175L22.4842 21.7175L21.2828 22.6157L23.8995 26.1157L25.1008 25.2175ZM4.10086 26.1157L6.71736 22.6157L5.51597 21.7175L2.89946 25.2175L4.10086 26.1157Z" fill="#06161D"/>
</svg>
