<svg width="54" height="54" viewBox="0 0 54 54" fill="none" xmlns="http://www.w3.org/2000/svg">
<path d="M27 29.25H26.25C26.25 29.5008 26.3753 29.7349 26.584 29.874L27 29.25ZM27.75 18C27.75 17.5858 27.4142 17.25 27 17.25C26.5858 17.25 26.25 17.5858 26.25 18H27.75ZM33.334 34.374C33.6786 34.6038 34.1443 34.5107 34.374 34.166C34.6038 33.8214 34.5107 33.3557 34.166 33.126L33.334 34.374ZM38.1082 3.81283C37.7287 3.64687 37.2865 3.81999 37.1205 4.19951C36.9546 4.57902 37.1277 5.02121 37.5072 5.18717L38.1082 3.81283ZM48.8755 14.7352C49.1048 15.0801 49.5703 15.1738 49.9153 14.9445C50.2602 14.7151 50.3539 14.2496 50.1245 13.9047L48.8755 14.7352ZM3.87545 13.9047C3.64611 14.2496 3.73981 14.7151 4.08474 14.9445C4.42967 15.1738 4.89521 15.0801 5.12455 14.7352L3.87545 13.9047ZM16.4928 5.18717C16.8723 5.02121 17.0454 4.57902 16.8795 4.19951C16.7135 3.81999 16.2713 3.64687 15.8918 3.81283L16.4928 5.18717ZM46.6493 49.9491C46.8973 50.2808 47.3673 50.3487 47.6991 50.1007C48.0308 49.8527 48.0987 49.3827 47.8507 49.0509L46.6493 49.9491ZM42.8042 42.3009C42.5562 41.9692 42.0862 41.9013 41.7545 42.1493C41.4227 42.3973 41.3548 42.8673 41.6029 43.1991L42.8042 42.3009ZM6.1493 49.0509C5.90129 49.3827 5.96918 49.8527 6.30093 50.1007C6.63269 50.3487 7.10269 50.2808 7.3507 49.9491L6.1493 49.0509ZM12.3968 43.1991C12.6448 42.8673 12.5769 42.3973 12.2452 42.1493C11.9134 41.9013 11.4434 41.9692 11.1954 42.3009L12.3968 43.1991ZM27.75 29.25V18H26.25V29.25H27.75ZM26.584 29.874L33.334 34.374L34.166 33.126L27.416 28.626L26.584 29.874ZM46.5 29.25C46.5 40.0196 37.7696 48.75 27 48.75V50.25C38.598 50.25 48 40.848 48 29.25H46.5ZM27 48.75C16.2304 48.75 7.5 40.0196 7.5 29.25H6C6 40.848 15.402 50.25 27 50.25V48.75ZM7.5 29.25C7.5 18.4804 16.2304 9.75 27 9.75V8.25C15.402 8.25 6 17.652 6 29.25H7.5ZM27 9.75C37.7696 9.75 46.5 18.4804 46.5 29.25H48C48 17.652 38.598 8.25 27 8.25V9.75ZM37.5072 5.18717C42.152 7.21829 46.0965 10.5557 48.8755 14.7352L50.1245 13.9047C47.1879 9.48788 43.0194 5.96045 38.1082 3.81283L37.5072 5.18717ZM5.12455 14.7352C7.90346 10.5557 11.848 7.2183 16.4928 5.18717L15.8918 3.81283C10.9806 5.96045 6.81212 9.48788 3.87545 13.9047L5.12455 14.7352ZM47.8507 49.0509L42.8042 42.3009L41.6029 43.1991L46.6493 49.9491L47.8507 49.0509ZM7.3507 49.9491L12.3968 43.1991L11.1954 42.3009L6.1493 49.0509L7.3507 49.9491Z" fill="#06161D"/>
</svg>
