<svg width="32" height="32" viewBox="0 0 32 32" fill="none" xmlns="http://www.w3.org/2000/svg">
<path d="M17.6122 4.1362C16.9519 2.79834 15.0442 2.79836 14.3839 4.1362L11.24 10.5065L4.20996 11.528C2.73356 11.7425 2.14404 13.5569 3.21237 14.5983L8.29936 19.5568L7.09848 26.5585C6.84628 28.0289 8.38967 29.1503 9.71019 28.456L15.998 25.1503L22.2859 28.456C23.6064 29.1503 25.1498 28.0289 24.8976 26.5585L23.6967 19.5568L28.7838 14.5983C29.852 13.5569 29.2626 11.7425 27.7862 11.528L20.7562 10.5065L17.6122 4.1362ZM12.9869 11.4859L15.998 5.38472L19.0092 11.4859C19.2714 12.0172 19.7782 12.3854 20.3644 12.4706L27.0975 13.4489L22.2254 18.1981C21.8012 18.6116 21.6076 19.2073 21.7078 19.7913L22.8579 26.4972L16.8356 23.3311C16.3112 23.0553 15.6848 23.0553 15.1604 23.3311L9.1382 26.4972L10.2883 19.7913C10.3885 19.2073 10.1949 18.6116 9.77067 18.1981L4.89859 13.4489L11.6316 12.4706C12.2179 12.3854 12.7247 12.0172 12.9869 11.4859ZM1.55267 5.04136C1.20765 5.47261 1.27757 6.1019 1.70884 6.44692L5.04217 9.11358C5.47343 9.4586 6.10272 9.38868 6.44773 8.95741C6.79275 8.52614 6.72283 7.89686 6.29156 7.55185L2.95823 4.88518C2.52696 4.54017 1.89767 4.61009 1.55267 5.04136ZM30.4478 24.2908C30.7928 23.8595 30.7228 23.2301 30.2916 22.8852L26.9583 20.2185C26.527 19.8735 25.8978 19.9435 25.5527 20.3747C25.2076 20.806 25.2776 21.4352 25.7088 21.7803L29.0422 24.4469C29.4735 24.7919 30.1027 24.722 30.4478 24.2908ZM1.70884 22.8852C1.27757 23.2301 1.20765 23.8595 1.55267 24.2908C1.89767 24.722 2.52696 24.7919 2.95823 24.4469L6.29156 21.7803C6.72283 21.4352 6.79275 20.806 6.44773 20.3747C6.10272 19.9435 5.47343 19.8735 5.04217 20.2185L1.70884 22.8852ZM30.4478 5.04136C30.7928 5.47261 30.7228 6.1019 30.2916 6.44692L26.9583 9.11358C26.527 9.4586 25.8978 9.38868 25.5527 8.95741C25.2076 8.52614 25.2776 7.89686 25.7088 7.55185L29.0422 4.88518C29.4735 4.54017 30.1027 4.61009 30.4478 5.04136Z" fill="#212121"/>
</svg>
